<?xml version="1.0" encoding="UTF-8" standalone="no"?>
<!-- Created with Inkscape (http://www.inkscape.org/) -->

<svg
   xmlns:dc="http://purl.org/dc/elements/1.1/"
   xmlns:cc="http://creativecommons.org/ns#"
   xmlns:rdf="http://www.w3.org/1999/02/22-rdf-syntax-ns#"
   xmlns:svg="http://www.w3.org/2000/svg"
   xmlns="http://www.w3.org/2000/svg"
   xmlns:sodipodi="http://sodipodi.sourceforge.net/DTD/sodipodi-0.dtd"
   xmlns:inkscape="http://www.inkscape.org/namespaces/inkscape"
   width="24.852444mm"
   height="19.697681mm"
   viewBox="0 0 24.852444 19.697681"
   version="1.1"
   id="svg1783"
   inkscape:version="0.92.2 2405546, 2018-03-11"
   sodipodi:docname="TARDIS_logo.svg">
  <defs
     id="defs1777" />
  <sodipodi:namedview
     id="base"
     pagecolor="#ffffff"
     bordercolor="#666666"
     borderopacity="1.0"
     inkscape:pageopacity="0.0"
     inkscape:pageshadow="2"
     inkscape:zoom="3.959798"
     inkscape:cx="-37.299342"
     inkscape:cy="13.378231"
     inkscape:document-units="mm"
     inkscape:current-layer="text17265-7-2-0-5"
     showgrid="false"
     fit-margin-top="0"
     fit-margin-left="0"
     fit-margin-right="0"
     fit-margin-bottom="0"
     inkscape:window-width="1916"
     inkscape:window-height="1041"
     inkscape:window-x="0"
     inkscape:window-y="18"
     inkscape:window-maximized="0" />
  <metadata
     id="metadata1780">
    <rdf:RDF>
      <cc:Work
         rdf:about="">
        <dc:format>image/svg+xml</dc:format>
        <dc:type
           rdf:resource="http://purl.org/dc/dcmitype/StillImage" />
        <dc:title></dc:title>
      </cc:Work>
    </rdf:RDF>
  </metadata>
  <g
     inkscape:label="Layer 1"
     inkscape:groupmode="layer"
     id="layer1"
     transform="translate(-72.996397,-115.54997)">
    <g
       id="g7807"
       transform="matrix(0.72649863,0,0,0.72649863,48.942655,92.631667)">
      <g
         aria-label="D"
         style="font-style:normal;font-variant:normal;font-weight:normal;font-stretch:normal;font-size:3.52777767px;line-height:1.25;font-family:Arial;-inkscape-font-specification:Arial;letter-spacing:0px;word-spacing:0px;fill:#000097;fill-opacity:1;stroke:none;stroke-width:0.26458332"
         id="text2716-3"
         transform="matrix(1.0078065,0,0,1.0078065,-98.534092,-195.66549)">
        <path
           d="m 148.67973,229.45283 c 0,0 2.5763,0.7607 2.5763,0.7607 1.47359,0.43511 2.39653,0.82019 2.85489,1.17562 0.44891,0.34606 0.78093,0.79312 1.00345,1.34254 0.21924,0.54098 0.35455,1.11337 0.40823,1.72153 0.0535,0.59838 0.0802,1.76304 0.0802,3.49565 0,0 0,6.4068 0,6.4068 0,1.64222 -0.0401,2.75204 -0.12067,3.33191 -0.077,0.57444 -0.21483,1.05243 -0.41532,1.43559 -0.20328,0.38065 -0.45819,0.6896 -0.76736,0.9265 -0.31584,0.23409 -0.80447,0.46581 -1.48258,0.69889 0,0 -4.13737,1.42212 -4.13737,1.42212 0,0 2e-4,-22.71785 2e-4,-22.71785 m 3.36129,4.51189 c 0,0 0,13.53113 0,13.53113 0.43267,-0.10142 0.69319,-0.31164 0.78978,-0.63121 0.0961,-0.32576 0.1439,-1.15418 0.1439,-2.48673 0,0 0,-7.75983 0,-7.75983 0,-0.9047 -0.016,-1.48699 -0.048,-1.74728 -0.032,-0.26081 -0.10527,-0.45922 -0.22023,-0.59554 -0.11608,-0.1456 -0.33646,-0.24892 -0.6655,-0.3101 0,0 0,-4.4e-4 0,-4.4e-4"
           style="font-style:normal;font-variant:normal;font-weight:normal;font-stretch:normal;font-family:Impact;-inkscape-font-specification:Impact;fill:#000097;fill-opacity:1;stroke-width:0.26458332"
           id="path2766-6"
           inkscape:connector-curvature="0" />
      </g>
      <path
         inkscape:connector-curvature="0"
         id="path15349-25-7-6-0-3-3-9-7"
         d="m 51.360155,58.473761 v -22.71791 l 6.9233,2.04424 v 18.29396 z"
         style="font-style:normal;font-variant:normal;font-weight:normal;font-stretch:normal;font-size:medium;line-height:1.25;font-family:Arial;-inkscape-font-specification:Arial;letter-spacing:0px;word-spacing:0px;fill:none;fill-opacity:1;stroke:#000097;stroke-width:0.26458332px;stroke-linecap:butt;stroke-linejoin:miter;stroke-opacity:1"
         sodipodi:nodetypes="ccccc" />
      <path
         inkscape:connector-curvature="0"
         id="path15349-25-7-0-1-7-1-5-5-5"
         d="m 50.837662,34.421192 v -2.87495 l 1.45288,0.42899 v 2.87495 z"
         style="font-style:normal;font-variant:normal;font-weight:normal;font-stretch:normal;font-size:medium;line-height:1.25;font-family:Arial;-inkscape-font-specification:Arial;letter-spacing:0px;word-spacing:0px;fill:#000097;fill-opacity:1;stroke:none;stroke-width:0.05552374px;stroke-linecap:butt;stroke-linejoin:miter;stroke-opacity:1"
         sodipodi:nodetypes="ccccc" />
      <path
         inkscape:connector-curvature="0"
         id="path15349-25-7-0-2-0-0-8-9-1-3"
         d="m 50.837662,34.421192 v -2.87495 l -1.452881,0.42899 v 2.87495 z"
         style="font-style:normal;font-variant:normal;font-weight:normal;font-stretch:normal;font-size:medium;line-height:1.25;font-family:Arial;-inkscape-font-specification:Arial;letter-spacing:0px;word-spacing:0px;fill:#000097;fill-opacity:1;stroke:none;stroke-width:0.05552374px;stroke-linecap:butt;stroke-linejoin:miter;stroke-opacity:1"
         sodipodi:nodetypes="ccccc" />
      <g
         aria-label="TA"
         style="font-style:normal;font-variant:normal;font-weight:normal;font-stretch:normal;font-size:3.52777767px;line-height:1.25;font-family:Arial;-inkscape-font-specification:Arial;letter-spacing:0px;word-spacing:0px;fill:#000097;fill-opacity:1;stroke:none;stroke-width:0.26458332"
         id="text17265-7-2-0-5">
        <path
           d="m 37.546419,42.725564 v 1.562696 h -1.205784 v 6.245958 H 34.310096 V 44.28826 h -1.20096 v -1.562696 z"
           style="font-style:normal;font-variant:normal;font-weight:normal;font-stretch:normal;font-size:9.87777805px;font-family:Impact;-inkscape-font-specification:Impact;fill:#000097;fill-opacity:1;stroke-width:0.26458332"
           id="path826" />
        <path
           d="m 41.130007,42.725564 1.162376,7.808654 h -2.078771 l -0.101286,-1.403532 h -0.728293 l -0.120578,1.403532 h -2.102887 l 1.032151,-7.808654 z m -1.075559,5.020882 q -0.15434,-1.326361 -0.30868,-3.274907 -0.308681,2.237934 -0.385851,3.274907 z"
           style="font-style:normal;font-variant:normal;font-weight:normal;font-stretch:normal;font-size:9.87777805px;font-family:Impact;-inkscape-font-specification:Impact;fill:#000097;fill-opacity:1;stroke-width:0.26458332"
           id="path828" />
      </g>
      <g
         aria-label="IS"
         style="font-style:normal;font-variant:normal;font-weight:normal;font-stretch:normal;font-size:3.52777767px;line-height:1.25;font-family:Arial;-inkscape-font-specification:Arial;letter-spacing:0px;word-spacing:0px;fill:#000097;fill-opacity:1;stroke:none;stroke-width:0.26458332"
         id="text17269-2-8-7-2">
        <path
           d="m 62.021857,42.725564 v 7.808654 h -2.03054 v -7.808654 z"
           style="font-style:normal;font-variant:normal;font-weight:normal;font-stretch:normal;font-size:9.87777805px;font-family:Impact;-inkscape-font-specification:Impact;fill:#000097;fill-opacity:1;stroke-width:0.26458332"
           id="path880" />
        <path
           d="m 67.148848,45.0889 h -1.885846 v -0.578776 q 0,-0.405144 -0.07235,-0.516076 -0.07235,-0.110932 -0.241156,-0.110932 -0.183279,0 -0.279742,0.149517 -0.09164,0.149518 -0.09164,0.453375 0,0.390674 0.106109,0.588422 0.101286,0.197749 0.573953,0.477491 1.355301,0.805463 1.70739,1.321538 0.352088,0.516076 0.352088,1.663981 0,0.834403 -0.197748,1.2299 -0.192925,0.395497 -0.752409,0.665592 -0.559483,0.265272 -1.302246,0.265272 -0.81511,0 -1.393886,-0.30868 -0.573953,-0.308681 -0.752409,-0.786171 -0.178456,-0.47749 -0.178456,-1.355301 V 47.7368 h 1.885846 v 0.950158 q 0,0.438905 0.07717,0.564306 0.08199,0.125402 0.284565,0.125402 0.202571,0 0.299034,-0.159164 0.101286,-0.159163 0.101286,-0.472667 0,-0.689708 -0.188102,-0.901926 -0.192926,-0.212218 -0.950158,-0.709001 -0.757232,-0.501605 -1.003211,-0.728293 -0.24598,-0.226687 -0.409967,-0.627007 -0.159163,-0.40032 -0.159163,-1.022504 0,-0.897103 0.226687,-1.311893 0.23151,-0.414789 0.742763,-0.6463 0.511252,-0.236333 1.234722,-0.236333 0.790994,0 1.345654,0.255626 0.559484,0.255626 0.73794,0.6463 0.183279,0.38585 0.183279,1.316715 z"
           style="font-style:normal;font-variant:normal;font-weight:normal;font-stretch:normal;font-size:9.87777805px;font-family:Impact;-inkscape-font-specification:Impact;fill:#000097;fill-opacity:1;stroke-width:0.26458332"
           id="path882" />
      </g>
      <path
         inkscape:connector-curvature="0"
         id="path15349-25-7-9-7-0-6-7-6-1"
         d="m 50.366986,58.473761 v -22.71792 l -6.9233,2.04424 v 18.29396 z"
         style="font-style:normal;font-variant:normal;font-weight:normal;font-stretch:normal;font-size:medium;line-height:1.25;font-family:Arial;-inkscape-font-specification:Arial;letter-spacing:0px;word-spacing:0px;fill:none;fill-opacity:1;stroke:#000097;stroke-width:0.26499999;stroke-linecap:butt;stroke-linejoin:miter;stroke-miterlimit:4;stroke-dasharray:none;stroke-opacity:1"
         sodipodi:nodetypes="ccccc" />
      <g
         aria-label="R"
         transform="matrix(-1.0078065,0,0,1.0078065,-99.529328,-195.66551)"
         style="font-style:normal;font-variant:normal;font-weight:normal;font-stretch:normal;font-size:3.52777767px;line-height:1.25;font-family:Arial;-inkscape-font-specification:Arial;letter-spacing:0px;word-spacing:0px;fill:#000097;fill-opacity:1;stroke:none;stroke-width:0.26458332"
         id="text3297-2">
        <path
           inkscape:connector-curvature="0"
           d="m -141.75661,231.49689 c 0,0 -1.88364,-0.55618 -1.88364,-0.55618 -1.39975,-0.41331 -2.42134,-0.61534 -2.98006,-0.57602 -0.58359,0.0391 -1.07223,0.43883 -1.45685,1.2108 -0.39929,0.77865 -0.60238,2.14291 -0.60238,4.07937 0,1.76805 0.14278,2.96147 0.42493,3.57286 0.27768,0.60178 0.8113,0.95579 1.57757,1.06533 -0.69273,0.28639 -1.17454,0.67442 -1.42646,1.16036 -0.25571,0.4932 -0.41511,0.94924 -0.47555,1.36376 -0.0666,0.40743 -0.10006,1.5284 -0.10006,3.36175 0,0 0,5.99162 0,5.99162 0,0 3.24911,-1.11681 3.24911,-1.11681 0,0 0,-6.8593 0,-6.8593 0,-1.10496 0.0528,-1.7932 0.1579,-2.0634 0.0992,-0.26813 0.36207,-0.41345 0.78056,-0.43672 0,0 0,9.03685 0,9.03685 0,0 2.73531,-0.9402 2.73531,-0.9402 0,0 -3.8e-4,-18.29407 -3.8e-4,-18.29407 m -2.73539,2.62145 c 0,0 0,4.45654 0,4.45654 -0.34058,-0.0149 -0.58243,-0.10533 -0.72088,-0.27202 -0.14451,-0.17727 -0.21725,-0.72112 -0.21725,-1.63034 0,0 0,-1.13474 0,-1.13474 0,-0.65446 0.0703,-1.07172 0.2099,-1.25063 0.13356,-0.17805 0.37802,-0.23342 0.72832,-0.16829 0,0 -9e-5,-5.2e-4 -9e-5,-5.2e-4"
           style="font-style:normal;font-variant:normal;font-weight:normal;font-stretch:normal;font-family:Impact;-inkscape-font-specification:Impact;fill:#000097;fill-opacity:1;stroke-width:0.26458332"
           id="path3556-7" />
      </g>
    </g>
  </g>
</svg>
